G04 Layer: TopSilkscreenLayer*
G04 EasyEDA v6.5.54, 2026-04-13 12:43:32*
G04 ab396821c5d1410da7efbc255439c2a2,81a6330f3d4149d2af66a0b9843494eb,10*
G04 Gerber Generator version 0.2*
G04 Scale: 100 percent, Rotated: No, Reflected: No *
G04 Dimensions in millimeters *
G04 leading zeros omitted , absolute positions ,4 integer and 5 decimal *
%FSLAX45Y45*%
%MOMM*%

%ADD10C,0.1524*%
%ADD11C,0.2000*%
%ADD12C,0.2540*%
%ADD13C,0.0800*%
%ADD14C,0.2032*%
%ADD15C,0.0162*%
%ADD16C,0.2030*%
%ADD17C,0.3000*%

%LPD*%
D10*
X991608Y4876800D02*
G01*
X913630Y4876800D01*
X898136Y4871720D01*
X887722Y4861305D01*
X882642Y4845557D01*
X882642Y4835144D01*
X887722Y4819650D01*
X898136Y4809236D01*
X913630Y4804155D01*
X991608Y4804155D01*
X976114Y4696968D02*
G01*
X986528Y4707381D01*
X991608Y4723129D01*
X991608Y4743704D01*
X986528Y4759452D01*
X976114Y4769865D01*
X965700Y4769865D01*
X955286Y4764531D01*
X949952Y4759452D01*
X944872Y4749037D01*
X934458Y4717795D01*
X929378Y4707381D01*
X924044Y4702302D01*
X913630Y4696968D01*
X898136Y4696968D01*
X887722Y4707381D01*
X882642Y4723129D01*
X882642Y4743704D01*
X887722Y4759452D01*
X898136Y4769865D01*
X991608Y4662678D02*
G01*
X882642Y4662678D01*
X991608Y4662678D02*
G01*
X991608Y4615942D01*
X986528Y4600447D01*
X981194Y4595113D01*
X970780Y4590034D01*
X960366Y4590034D01*
X949952Y4595113D01*
X944872Y4600447D01*
X939792Y4615942D01*
X939792Y4662678D02*
G01*
X939792Y4615942D01*
X934458Y4600447D01*
X929378Y4595113D01*
X918964Y4590034D01*
X903216Y4590034D01*
X892802Y4595113D01*
X887722Y4600447D01*
X882642Y4615942D01*
X882642Y4662678D01*
X965700Y4477765D02*
G01*
X976114Y4483100D01*
X986528Y4493260D01*
X991608Y4503673D01*
X991608Y4524502D01*
X986528Y4534915D01*
X976114Y4545329D01*
X965700Y4550410D01*
X949952Y4555744D01*
X924044Y4555744D01*
X908550Y4550410D01*
X898136Y4545329D01*
X887722Y4534915D01*
X882642Y4524502D01*
X882642Y4503673D01*
X887722Y4493260D01*
X898136Y4483100D01*
X908550Y4477765D01*
X970780Y4443476D02*
G01*
X976114Y4433062D01*
X991608Y4417568D01*
X882642Y4417568D01*
X2599921Y4546820D02*
G01*
X2454678Y4546820D01*
X2454678Y4443658D01*
X2599921Y4241579D02*
G01*
X2454678Y4241579D01*
X2454678Y4344741D01*
X2599921Y4439739D02*
G01*
X2599921Y4348660D01*
X2612621Y4965920D02*
G01*
X2467378Y4965920D01*
X2467378Y4862758D01*
X2612621Y4660679D02*
G01*
X2467378Y4660679D01*
X2467378Y4763841D01*
X2612621Y4858839D02*
G01*
X2612621Y4767760D01*
D11*
X1741586Y4784725D02*
G01*
X1741586Y4849723D01*
X1806585Y4849723D01*
X2271582Y4784725D02*
G01*
X2271582Y4849723D01*
X2206584Y4849723D01*
X2206584Y4319727D02*
G01*
X2271582Y4319727D01*
X2271582Y4384725D01*
X1741586Y4384725D02*
G01*
X1741586Y4319727D01*
X1806585Y4319727D01*
D12*
X1094333Y5056997D02*
G01*
X1280624Y5056997D01*
X722495Y4162999D02*
G01*
X722495Y5056997D01*
X870625Y5056997D01*
X1094298Y4162999D02*
G01*
X1280660Y4162999D01*
X722495Y4162999D02*
G01*
X870661Y4162999D01*
D13*
X2369693Y3920489D02*
G01*
X2684652Y3920489D01*
X2367152Y4080510D02*
G01*
X2687193Y4080510D01*
X2494823Y3920489D02*
G01*
X2495196Y4080510D01*
D14*
X2768600Y4013200D02*
G01*
X2768600Y3822700D01*
X3022600Y3822700D01*
X3022600Y5346700D01*
X2768600Y5346700D01*
D16*
X2768600Y5346700D02*
G01*
X2768600Y4013200D01*
D13*
X1430020Y3920489D02*
G01*
X1744979Y3920489D01*
X1427479Y4080510D02*
G01*
X1747520Y4080510D01*
X1555150Y3920489D02*
G01*
X1555523Y4080510D01*
X1925320Y3920489D02*
G01*
X2240279Y3920489D01*
X1922779Y4080510D02*
G01*
X2242820Y4080510D01*
X2050450Y3920489D02*
G01*
X2050823Y4080510D01*
D10*
X1704360Y5224221D02*
G01*
X1704360Y5320108D01*
X1572239Y5320108D01*
X1572239Y5224221D01*
X1704360Y5138978D02*
G01*
X1704360Y5043091D01*
X1572239Y5043091D01*
X1572239Y5138978D01*
X1958360Y5224221D02*
G01*
X1958360Y5320108D01*
X1826239Y5320108D01*
X1826239Y5224221D01*
X1958360Y5138978D02*
G01*
X1958360Y5043091D01*
X1826239Y5043091D01*
X1826239Y5138978D01*
X2067539Y5138978D02*
G01*
X2067539Y5043091D01*
X2199660Y5043091D01*
X2199660Y5138978D01*
X2067539Y5224221D02*
G01*
X2067539Y5320108D01*
X2199660Y5320108D01*
X2199660Y5224221D01*
X2334239Y5138978D02*
G01*
X2334239Y5043091D01*
X2466360Y5043091D01*
X2466360Y5138978D01*
X2334239Y5224221D02*
G01*
X2334239Y5320108D01*
X2466360Y5320108D01*
X2466360Y5224221D01*
D17*
G75*
G01*
X1706611Y4829835D02*
G03*
X1706611Y4829581I-15001J-127D01*
M02*
