G04 Layer: TopLayer*
G04 EasyEDA v6.5.54, 2026-04-13 12:43:32*
G04 ab396821c5d1410da7efbc255439c2a2,81a6330f3d4149d2af66a0b9843494eb,10*
G04 Gerber Generator version 0.2*
G04 Scale: 100 percent, Rotated: No, Reflected: No *
G04 Dimensions in millimeters *
G04 leading zeros omitted , absolute positions ,4 integer and 5 decimal *
%FSLAX45Y45*%
%MOMM*%

%AMMACRO1*21,1,$1,$2,0,0,$3*%
%ADD10C,0.2540*%
%ADD11R,1.2500X0.7000*%
%ADD12O,0.950011X0.28001*%
%ADD13O,0.28001X0.950011*%
%ADD14R,3.1500X3.1500*%
%ADD15R,1.3000X0.3000*%
%ADD16R,1.5000X1.3589*%
%ADD17MACRO1,0.864X0.8065X0.0000*%
%ADD18R,0.8640X0.8065*%
%ADD19R,0.0139X0.8065*%
%ADD20O,1.799996X1.199998*%
%ADD21O,1.999996X1.199998*%
%ADD22C,1.5748*%
%ADD23R,1.5748X1.5748*%
%ADD24C,0.6100*%

%LPD*%
D10*
X1386408Y4585106D02*
G01*
X1386255Y4585258D01*
X1386255Y4684953D01*
X1386408Y4685106D01*
X1479321Y4585106D02*
G01*
X1386408Y4585106D01*
X1432864Y4685106D02*
G01*
X1386408Y4685106D01*
X1432864Y4685106D02*
G01*
X1479321Y4685106D01*
X1479321Y4685106D02*
G01*
X1589176Y4685106D01*
X1689582Y4584700D01*
X1764106Y4584700D01*
X1892300Y5256936D02*
G01*
X1638300Y5256936D01*
X1567179Y5256936D02*
G01*
X1567179Y5207304D01*
X1402486Y5042611D01*
X1638300Y5256936D02*
G01*
X1567179Y5256936D01*
X984504Y5042611D02*
G01*
X1402486Y5042611D01*
X1402486Y5042611D02*
G01*
X1479295Y4965801D01*
X1479295Y4945100D01*
X984504Y4177588D02*
G01*
X1402486Y4177588D01*
X1402486Y4177588D02*
G01*
X1479321Y4254423D01*
X1479321Y4275099D01*
X1479321Y4275099D02*
G01*
X1479321Y4305096D01*
X1479321Y4915103D02*
G01*
X1479295Y4915128D01*
X1479295Y4945100D01*
X2133600Y5256936D02*
G01*
X2133600Y5227853D01*
X2133600Y5227853D02*
G01*
X2133600Y5198770D01*
X2133600Y5227853D02*
G01*
X2242438Y5336692D01*
X2451303Y5336692D01*
X2639999Y5147995D01*
X2639999Y4908295D01*
X2133600Y5198770D02*
G01*
X2068449Y5198770D01*
X1963648Y5093970D01*
X1963648Y5039563D01*
X1856486Y4932400D01*
X1856486Y4827193D01*
X1479295Y4385106D02*
G01*
X1386382Y4385106D01*
X1479321Y4835093D02*
G01*
X1449298Y4835093D01*
X1449298Y4835093D02*
G01*
X1479295Y4865090D01*
X1962810Y4000500D02*
G01*
X1962810Y4096359D01*
X1328775Y4404334D02*
G01*
X1328775Y4771237D01*
X1392631Y4835093D01*
X1449298Y4835093D01*
X1386382Y4385106D02*
G01*
X1367154Y4404334D01*
X1328775Y4404334D01*
X1328775Y4404334D02*
G01*
X1043482Y4404334D01*
X864768Y4225620D01*
X864768Y4142765D01*
X1007033Y4000500D01*
X1467510Y4000500D01*
X1479321Y4355084D02*
G01*
X1479321Y4385106D01*
X1479295Y4385106D01*
X1856486Y4342180D02*
G01*
X1764106Y4434560D01*
X1764106Y4434586D01*
X1856486Y4097223D02*
G01*
X1856486Y4342180D01*
X1962810Y4096359D02*
G01*
X1961946Y4097223D01*
X1856486Y4097223D01*
X1856486Y4097223D02*
G01*
X1564233Y4097223D01*
X1467510Y4000500D01*
X1479321Y4535093D02*
G01*
X1572234Y4535093D01*
X1479321Y4635093D02*
G01*
X1572234Y4635093D01*
X1572412Y4535271D02*
G01*
X1763496Y4535271D01*
X1764106Y4534662D01*
X1572234Y4535093D02*
G01*
X1572412Y4535271D01*
X1572412Y4535271D02*
G01*
X1572412Y4634915D01*
X1572234Y4635093D01*
X1638300Y5106263D02*
G01*
X1638300Y5038039D01*
X1479321Y4735093D02*
G01*
X1572234Y4735093D01*
X1638300Y5038039D02*
G01*
X1631213Y5030952D01*
X1631213Y4794072D01*
X1572234Y4735093D01*
X2400300Y5038039D02*
G01*
X2538806Y4899532D01*
X2538806Y4729073D01*
X2549575Y4718304D01*
X2400300Y5106263D02*
G01*
X2400300Y5038039D01*
X2639999Y4718304D02*
G01*
X2549575Y4718304D01*
X2400300Y5256936D02*
G01*
X2400300Y5188686D01*
X2627299Y4489195D02*
G01*
X2536875Y4489195D01*
X2150795Y4950637D02*
G01*
X2211171Y5011013D01*
X2211171Y5067807D01*
X2332050Y5188686D01*
X2400300Y5188686D01*
X2536875Y4489195D02*
G01*
X2536875Y4564557D01*
X2150795Y4950637D01*
X2150795Y4950637D02*
G01*
X2126310Y4950637D01*
X2056638Y4880965D01*
X2056638Y4827193D01*
X2895600Y4711700D02*
G01*
X2837484Y4653584D01*
X2554909Y4653584D01*
X2440000Y4768494D01*
X2440000Y4813300D01*
X2895600Y4457700D02*
G01*
X2832100Y4394200D01*
X2427300Y4394200D01*
X2407183Y4000500D02*
G01*
X2407183Y4096359D01*
X2749727Y4272457D02*
G01*
X2665222Y4187952D01*
X2498775Y4187952D01*
X2407183Y4096359D01*
X1682826Y4396460D02*
G01*
X1682826Y4466209D01*
X1701241Y4484623D01*
X1764106Y4484623D01*
X2062479Y5106263D02*
G01*
X2025929Y5069712D01*
X2022220Y5069712D01*
X2627299Y4299204D02*
G01*
X2536875Y4299204D01*
X2536875Y4299204D02*
G01*
X2438933Y4201261D01*
X1919935Y4201261D01*
X2133600Y5106263D02*
G01*
X2062479Y5106263D01*
X1479321Y4435094D02*
G01*
X1572234Y4435094D01*
X1572234Y4435094D02*
G01*
X1591055Y4416272D01*
X1591055Y4312234D01*
X1892300Y5106263D02*
G01*
X1891309Y5106263D01*
X1815947Y5030901D01*
X2202789Y3904640D02*
G01*
X2202967Y3904462D01*
X2646984Y3904462D01*
X2647162Y3904640D01*
X2202789Y4000500D02*
G01*
X2202789Y3904640D01*
X2647162Y4000500D02*
G01*
X2647162Y3904640D01*
X1707489Y3904640D02*
G01*
X1707667Y3904462D01*
X2202611Y3904462D01*
X2202789Y3904640D01*
X2647162Y4000500D02*
G01*
X2750083Y4000500D01*
X1707489Y3952570D02*
G01*
X1707489Y3904640D01*
X1707489Y3952570D02*
G01*
X1707489Y4000500D01*
X2006600Y4584700D02*
G01*
X1956561Y4634737D01*
X1764106Y4634737D01*
X2750083Y4000500D02*
G01*
X2750083Y4029481D01*
X2779013Y4058412D01*
X2915742Y4058412D01*
X3006090Y4148759D01*
X3006090Y5109210D01*
X2895600Y5219700D01*
X2895600Y5219700D02*
G01*
X2735579Y5379720D01*
X2128062Y5379720D01*
X2011806Y5263464D01*
X2011806Y5244693D01*
X1955622Y5188508D01*
X1848967Y5188508D01*
X1671980Y5011521D01*
X1671980Y4659985D01*
X1697228Y4634737D01*
X1764106Y4634737D01*
X1956536Y4827193D02*
G01*
X1956536Y4919827D01*
X1955952Y4920411D01*
X2006600Y4827193D02*
G01*
X2014550Y4835144D01*
X2014550Y4927345D01*
X2036165Y4948961D01*
D11*
G01*
X2627299Y4299204D03*
G01*
X2627299Y4489195D03*
G01*
X2427300Y4394200D03*
G01*
X2639999Y4718304D03*
G01*
X2639999Y4908295D03*
G01*
X2440000Y4813300D03*
D12*
G01*
X1764106Y4734813D03*
G01*
X1764106Y4684776D03*
G01*
X1764106Y4634737D03*
G01*
X1764106Y4584700D03*
G01*
X1764106Y4534662D03*
G01*
X1764106Y4484623D03*
G01*
X1764106Y4434586D03*
D13*
G01*
X1856486Y4342180D03*
G01*
X1906523Y4342180D03*
G01*
X1956536Y4342180D03*
G01*
X2006600Y4342180D03*
G01*
X2056638Y4342180D03*
G01*
X2106675Y4342180D03*
G01*
X2156688Y4342180D03*
D12*
G01*
X2249093Y4434586D03*
G01*
X2249093Y4484623D03*
G01*
X2249093Y4534662D03*
G01*
X2249093Y4584700D03*
G01*
X2249093Y4634737D03*
G01*
X2249093Y4684776D03*
G01*
X2249093Y4734813D03*
D13*
G01*
X2156688Y4827193D03*
G01*
X2106675Y4827193D03*
G01*
X2056638Y4827193D03*
G01*
X2006600Y4827193D03*
G01*
X1956536Y4827193D03*
G01*
X1906523Y4827193D03*
G01*
X1856486Y4827193D03*
D14*
G01*
X2006600Y4584700D03*
D15*
G01*
X1479321Y4785105D03*
G01*
X1479321Y4735093D03*
G01*
X1479321Y4685106D03*
G01*
X1479321Y4635093D03*
G01*
X1479321Y4585106D03*
G01*
X1479321Y4535093D03*
G01*
X1479321Y4485131D03*
G01*
X1479321Y4435094D03*
G01*
X1479295Y4945100D03*
G01*
X1479321Y4915103D03*
G01*
X1479295Y4865090D03*
G01*
X1479321Y4835093D03*
G01*
X1479295Y4385106D03*
G01*
X1479321Y4355084D03*
G01*
X1479321Y4305096D03*
G01*
X1479321Y4275099D03*
D16*
G01*
X2407183Y4000500D03*
G01*
X2647162Y4000500D03*
G01*
X1467510Y4000500D03*
G01*
X1707489Y4000500D03*
G01*
X1962810Y4000500D03*
G01*
X2202789Y4000500D03*
D17*
G01*
X1638300Y5256924D03*
D18*
G01*
X1638300Y5106263D03*
D17*
G01*
X1892299Y5256924D03*
D18*
G01*
X1892300Y5106263D03*
D17*
G01*
X2133600Y5106275D03*
D18*
G01*
X2133600Y5256936D03*
D17*
G01*
X2400300Y5106275D03*
D18*
G01*
X2400300Y5256936D03*
D20*
G01*
X984504Y4177588D03*
D21*
G01*
X1402486Y4177588D03*
G01*
X1402486Y5042611D03*
D20*
G01*
X984504Y5042611D03*
D22*
G01*
X2895600Y5219700D03*
G01*
X2895600Y4965700D03*
G01*
X2895600Y4711700D03*
G01*
X2895600Y4457700D03*
G01*
X2895600Y4203700D03*
D23*
G01*
X2895600Y3949700D03*
D24*
G01*
X2036165Y4948961D03*
G01*
X1955952Y4920411D03*
G01*
X1591055Y4312234D03*
G01*
X1815947Y5030901D03*
G01*
X1919935Y4201261D03*
G01*
X2022220Y5069712D03*
G01*
X1682826Y4396460D03*
G01*
X2749727Y4272457D03*
M02*
