G04 Layer: BottomSilkscreenLayer*
G04 EasyEDA v6.5.54, 2026-04-13 12:43:32*
G04 ab396821c5d1410da7efbc255439c2a2,81a6330f3d4149d2af66a0b9843494eb,10*
G04 Gerber Generator version 0.2*
G04 Scale: 100 percent, Rotated: No, Reflected: No *
G04 Dimensions in millimeters *
G04 leading zeros omitted , absolute positions ,4 integer and 5 decimal *
%FSLAX45Y45*%
%MOMM*%

%ADD10C,0.2032*%
%ADD11C,0.0150*%

%LPD*%
D10*
X2678744Y5159946D02*
G01*
X2686016Y5156309D01*
X2693291Y5149037D01*
X2696926Y5141762D01*
X2696926Y5127218D01*
X2693291Y5119946D01*
X2686016Y5112672D01*
X2678744Y5109037D01*
X2667835Y5105400D01*
X2649654Y5105400D01*
X2638745Y5109037D01*
X2631473Y5112672D01*
X2624200Y5119946D01*
X2620563Y5127218D01*
X2620563Y5141762D01*
X2624200Y5149037D01*
X2631473Y5156309D01*
X2638745Y5159946D01*
X2649654Y5159946D01*
X2649654Y5141762D02*
G01*
X2649654Y5159946D01*
X2696926Y5183944D02*
G01*
X2620563Y5183944D01*
X2696926Y5183944D02*
G01*
X2620563Y5234853D01*
X2696926Y5234853D02*
G01*
X2620563Y5234853D01*
X2696926Y5258854D02*
G01*
X2620563Y5258854D01*
X2696926Y5258854D02*
G01*
X2696926Y5284309D01*
X2693291Y5295216D01*
X2686016Y5302491D01*
X2678744Y5306126D01*
X2667835Y5309763D01*
X2649654Y5309763D01*
X2638745Y5306126D01*
X2631473Y5302491D01*
X2624200Y5295216D01*
X2620563Y5284309D01*
X2620563Y5258854D01*
X2696926Y4833272D02*
G01*
X2696926Y4873271D01*
X2667835Y4851453D01*
X2667835Y4862362D01*
X2664200Y4869637D01*
X2660563Y4873271D01*
X2649654Y4876909D01*
X2642382Y4876909D01*
X2631473Y4873271D01*
X2624200Y4865999D01*
X2620563Y4855090D01*
X2620563Y4844181D01*
X2624200Y4833272D01*
X2627835Y4829637D01*
X2635110Y4826000D01*
X2696926Y4900909D02*
G01*
X2620563Y4930000D01*
X2696926Y4959090D02*
G01*
X2620563Y4930000D01*
X2696926Y4990363D02*
G01*
X2696926Y5030363D01*
X2667835Y5008544D01*
X2667835Y5019454D01*
X2664200Y5026726D01*
X2660563Y5030363D01*
X2649654Y5034000D01*
X2642382Y5034000D01*
X2631473Y5030363D01*
X2624200Y5023091D01*
X2620563Y5012181D01*
X2620563Y5001272D01*
X2624200Y4990363D01*
X2627835Y4986726D01*
X2635110Y4983091D01*
X2696926Y4610100D02*
G01*
X2620563Y4610100D01*
X2696926Y4655919D02*
G01*
X2693291Y4648644D01*
X2686016Y4641372D01*
X2678744Y4637735D01*
X2667835Y4634100D01*
X2649654Y4634100D01*
X2638745Y4637735D01*
X2631473Y4641372D01*
X2624200Y4648644D01*
X2620563Y4655919D01*
X2620563Y4670463D01*
X2624200Y4677735D01*
X2631473Y4685009D01*
X2638745Y4688644D01*
X2649654Y4692281D01*
X2667835Y4692281D01*
X2678744Y4688644D01*
X2686016Y4685009D01*
X2693291Y4677735D01*
X2696926Y4670463D01*
X2696926Y4655919D01*
X2696926Y4738100D02*
G01*
X2693291Y4727191D01*
X2682382Y4719916D01*
X2664200Y4716282D01*
X2653291Y4716282D01*
X2635110Y4719916D01*
X2624200Y4727191D01*
X2620563Y4738100D01*
X2620563Y4745372D01*
X2624200Y4756282D01*
X2635110Y4763554D01*
X2653291Y4767191D01*
X2664200Y4767191D01*
X2682382Y4763554D01*
X2693291Y4756282D01*
X2696926Y4745372D01*
X2696926Y4738100D01*
X2709626Y4394200D02*
G01*
X2633263Y4394200D01*
X2709626Y4394200D02*
G01*
X2709626Y4441471D01*
X2673263Y4394200D02*
G01*
X2673263Y4423290D01*
X2633263Y4394200D02*
G01*
X2633263Y4441471D01*
X2709626Y4465472D02*
G01*
X2633263Y4465472D01*
X2709626Y4465472D02*
G01*
X2633263Y4516381D01*
X2709626Y4516381D02*
G01*
X2633263Y4516381D01*
X2709626Y4140200D02*
G01*
X2633263Y4140200D01*
X2709626Y4140200D02*
G01*
X2709626Y4172927D01*
X2705991Y4183837D01*
X2702354Y4187471D01*
X2695082Y4191109D01*
X2687810Y4191109D01*
X2680535Y4187471D01*
X2676900Y4183837D01*
X2673263Y4172927D01*
X2673263Y4140200D01*
X2673263Y4165653D02*
G01*
X2633263Y4191109D01*
X2709626Y4215109D02*
G01*
X2633263Y4266018D01*
X2709626Y4266018D02*
G01*
X2633263Y4215109D01*
X2696926Y3898953D02*
G01*
X2620563Y3898953D01*
X2696926Y3873500D02*
G01*
X2696926Y3924409D01*
X2696926Y3948409D02*
G01*
X2620563Y3999318D01*
X2696926Y3999318D02*
G01*
X2620563Y3948409D01*
M02*
