G04 Layer: BottomLayer*
G04 EasyEDA v6.5.54, 2026-04-13 12:43:32*
G04 ab396821c5d1410da7efbc255439c2a2,81a6330f3d4149d2af66a0b9843494eb,10*
G04 Gerber Generator version 0.2*
G04 Scale: 100 percent, Rotated: No, Reflected: No *
G04 Dimensions in millimeters *
G04 leading zeros omitted , absolute positions ,4 integer and 5 decimal *
%FSLAX45Y45*%
%MOMM*%

%ADD10C,0.2540*%
%ADD11O,1.799996X1.199998*%
%ADD12O,1.999996X1.199998*%
%ADD13C,1.5748*%
%ADD14R,1.5748X1.5748*%
%ADD15C,0.6100*%
%ADD16C,0.0119*%

%LPD*%
G36*
X950214Y3759708D02*
G01*
X930808Y3760622D01*
X912317Y3763060D01*
X894080Y3767175D01*
X876300Y3772814D01*
X859028Y3779977D01*
X842518Y3788664D01*
X826769Y3798722D01*
X811987Y3810101D01*
X798220Y3822750D01*
X785672Y3836568D01*
X774293Y3851401D01*
X764286Y3867150D01*
X755700Y3883761D01*
X748588Y3900982D01*
X743051Y3918813D01*
X739038Y3937050D01*
X736650Y3955592D01*
X735838Y3974541D01*
X735838Y5194858D01*
X736701Y5214670D01*
X739190Y5233212D01*
X743254Y5251450D01*
X748893Y5269230D01*
X756107Y5286451D01*
X764743Y5303012D01*
X774801Y5318709D01*
X786231Y5333542D01*
X798880Y5347258D01*
X812647Y5359857D01*
X827481Y5371185D01*
X843280Y5381193D01*
X859840Y5389778D01*
X877112Y5396890D01*
X894943Y5402478D01*
X913180Y5406491D01*
X931671Y5408879D01*
X950671Y5409692D01*
X2869438Y5409692D01*
X2889300Y5408777D01*
X2907792Y5406339D01*
X2926029Y5402224D01*
X2943809Y5396585D01*
X2961081Y5389422D01*
X2977591Y5380736D01*
X2993339Y5370677D01*
X3008122Y5359298D01*
X3021888Y5346649D01*
X3034436Y5332831D01*
X3045815Y5317998D01*
X3055772Y5302250D01*
X3064357Y5285638D01*
X3071469Y5268366D01*
X3077057Y5250586D01*
X3081070Y5232349D01*
X3083458Y5213807D01*
X3084271Y5194858D01*
X3084271Y3974541D01*
X3083407Y3954678D01*
X3080918Y3936187D01*
X3076854Y3917950D01*
X3071164Y3900170D01*
X3064002Y3882948D01*
X3055366Y3866387D01*
X3045307Y3850640D01*
X3033877Y3835857D01*
X3021228Y3822141D01*
X3007461Y3809542D01*
X2992628Y3798214D01*
X2976829Y3788206D01*
X2960268Y3779621D01*
X2942996Y3772509D01*
X2925165Y3766921D01*
X2906928Y3762908D01*
X2888437Y3760520D01*
X2869438Y3759708D01*
G37*

%LPC*%
G36*
X2817418Y3845051D02*
G01*
X2973781Y3845051D01*
X2980080Y3845763D01*
X2985566Y3847693D01*
X2990443Y3850741D01*
X2994558Y3854856D01*
X2997606Y3859733D01*
X2999536Y3865219D01*
X3000248Y3871518D01*
X3000248Y4027881D01*
X2999536Y4034180D01*
X2997606Y4039666D01*
X2994558Y4044543D01*
X2990443Y4048658D01*
X2985566Y4051706D01*
X2980080Y4053636D01*
X2973781Y4054348D01*
X2943555Y4054348D01*
X2939897Y4055008D01*
X2936748Y4056989D01*
X2934512Y4059936D01*
X2931210Y4071112D01*
X2927654Y4077766D01*
X2922879Y4083608D01*
X2920542Y4085539D01*
X2917901Y4088892D01*
X2916834Y4093057D01*
X2917596Y4097274D01*
X2920034Y4100779D01*
X2923743Y4103014D01*
X2935630Y4107027D01*
X2947924Y4113072D01*
X2959303Y4120692D01*
X2969564Y4129735D01*
X2978607Y4139996D01*
X2986227Y4151376D01*
X2992272Y4163669D01*
X2996641Y4176623D01*
X2999333Y4190034D01*
X3000248Y4203700D01*
X2999333Y4217365D01*
X2996641Y4230776D01*
X2992272Y4243730D01*
X2986227Y4256024D01*
X2978607Y4267403D01*
X2969564Y4277664D01*
X2959303Y4286707D01*
X2947924Y4294327D01*
X2935630Y4300372D01*
X2922676Y4304741D01*
X2909265Y4307433D01*
X2895600Y4308348D01*
X2881934Y4307433D01*
X2868523Y4304741D01*
X2855569Y4300372D01*
X2843276Y4294327D01*
X2831896Y4286707D01*
X2821635Y4277715D01*
X2818079Y4275683D01*
X2814015Y4275226D01*
X2810103Y4276394D01*
X2806954Y4279036D01*
X2805125Y4282694D01*
X2802686Y4291736D01*
X2798521Y4300626D01*
X2792933Y4308703D01*
X2791307Y4310278D01*
X2789123Y4313580D01*
X2788361Y4317492D01*
X2788361Y4396841D01*
X2789224Y4401007D01*
X2791815Y4404461D01*
X2795524Y4406544D01*
X2799842Y4406900D01*
X2803855Y4405426D01*
X2806954Y4402480D01*
X2812592Y4393996D01*
X2821635Y4383735D01*
X2831896Y4374692D01*
X2843276Y4367072D01*
X2855569Y4361027D01*
X2868523Y4356658D01*
X2881934Y4353966D01*
X2895600Y4353052D01*
X2909265Y4353966D01*
X2922676Y4356658D01*
X2935630Y4361027D01*
X2947924Y4367072D01*
X2959303Y4374692D01*
X2969564Y4383735D01*
X2978607Y4393996D01*
X2986227Y4405376D01*
X2992272Y4417669D01*
X2996641Y4430623D01*
X2999333Y4444034D01*
X3000248Y4457700D01*
X2999333Y4471365D01*
X2996641Y4484776D01*
X2992272Y4497730D01*
X2986227Y4510024D01*
X2978607Y4521403D01*
X2969564Y4531664D01*
X2959303Y4540707D01*
X2950464Y4546600D01*
X2947568Y4549546D01*
X2946095Y4553407D01*
X2946298Y4557522D01*
X2948076Y4561230D01*
X2951175Y4563922D01*
X2955137Y4565142D01*
X2960268Y4565650D01*
X2967482Y4567834D01*
X2974136Y4571390D01*
X2980385Y4576521D01*
X3029356Y4625543D01*
X3034487Y4631740D01*
X3038043Y4638446D01*
X3040227Y4645660D01*
X3041040Y4653686D01*
X3041040Y4858359D01*
X3040227Y4866386D01*
X3038043Y4873599D01*
X3034487Y4880305D01*
X3029356Y4886502D01*
X2996234Y4919675D01*
X2994101Y4922774D01*
X2993237Y4926431D01*
X2993796Y4930140D01*
X2996641Y4938623D01*
X2999333Y4952034D01*
X3000248Y4965700D01*
X2999333Y4979365D01*
X2996641Y4992776D01*
X2992272Y5005730D01*
X2986227Y5018024D01*
X2978607Y5029403D01*
X2969564Y5039664D01*
X2959303Y5048707D01*
X2947924Y5056327D01*
X2935630Y5062372D01*
X2922676Y5066741D01*
X2909265Y5069433D01*
X2895600Y5070348D01*
X2881934Y5069433D01*
X2868523Y5066741D01*
X2855569Y5062372D01*
X2843276Y5056327D01*
X2831896Y5048707D01*
X2821635Y5039664D01*
X2812592Y5029403D01*
X2804972Y5018024D01*
X2798927Y5005730D01*
X2794558Y4992776D01*
X2791866Y4979365D01*
X2790952Y4965700D01*
X2791866Y4952034D01*
X2794558Y4938623D01*
X2798927Y4925669D01*
X2804972Y4913376D01*
X2812592Y4901996D01*
X2821635Y4891735D01*
X2831896Y4882692D01*
X2843276Y4875072D01*
X2855569Y4869027D01*
X2868523Y4864658D01*
X2881934Y4861966D01*
X2895600Y4861052D01*
X2909265Y4861966D01*
X2922676Y4864658D01*
X2931160Y4867503D01*
X2934868Y4868062D01*
X2938526Y4867198D01*
X2941624Y4865065D01*
X2960827Y4845862D01*
X2963062Y4842560D01*
X2963824Y4838649D01*
X2963824Y4810709D01*
X2962910Y4806442D01*
X2960268Y4802936D01*
X2956407Y4800904D01*
X2952089Y4800650D01*
X2947924Y4802327D01*
X2935630Y4808372D01*
X2922676Y4812741D01*
X2909265Y4815433D01*
X2895600Y4816348D01*
X2881934Y4815433D01*
X2868523Y4812741D01*
X2855569Y4808372D01*
X2843276Y4802327D01*
X2831896Y4794707D01*
X2821635Y4785664D01*
X2812592Y4775403D01*
X2804972Y4764024D01*
X2798927Y4751730D01*
X2794558Y4738776D01*
X2791866Y4725365D01*
X2790952Y4711700D01*
X2791866Y4698034D01*
X2794558Y4684623D01*
X2798927Y4671669D01*
X2804972Y4659376D01*
X2812592Y4647996D01*
X2821635Y4637735D01*
X2828391Y4631740D01*
X2830880Y4628489D01*
X2831846Y4624476D01*
X2831134Y4620412D01*
X2828899Y4616958D01*
X2756916Y4544974D01*
X2753614Y4542739D01*
X2749702Y4541977D01*
X2745841Y4542739D01*
X2742539Y4544974D01*
X2249424Y5038090D01*
X2243175Y5043220D01*
X2236520Y5046776D01*
X2229307Y5048961D01*
X2221280Y5049723D01*
X2087930Y5049723D01*
X2083816Y5050586D01*
X2080463Y5053025D01*
X2078329Y5056632D01*
X2077821Y5060797D01*
X2078583Y5069687D01*
X2077720Y5079492D01*
X2075180Y5088991D01*
X2071014Y5097881D01*
X2065426Y5105958D01*
X2058466Y5112918D01*
X2050389Y5118506D01*
X2041499Y5122672D01*
X2032000Y5125212D01*
X2022246Y5126075D01*
X2012442Y5125212D01*
X2002942Y5122672D01*
X1994052Y5118506D01*
X1985975Y5112918D01*
X1984400Y5111292D01*
X1981098Y5109108D01*
X1977186Y5108295D01*
X1959457Y5108295D01*
X1951431Y5107533D01*
X1944217Y5105349D01*
X1937562Y5101793D01*
X1931314Y5096662D01*
X1884222Y5049570D01*
X1881022Y5047437D01*
X1877212Y5046624D01*
X1873402Y5047284D01*
X1870151Y5049316D01*
X1867865Y5052466D01*
X1864766Y5059070D01*
X1859127Y5067147D01*
X1852168Y5074107D01*
X1844141Y5079695D01*
X1835251Y5083860D01*
X1825752Y5086400D01*
X1815947Y5087264D01*
X1806143Y5086400D01*
X1796643Y5083860D01*
X1787753Y5079695D01*
X1779727Y5074107D01*
X1772767Y5067147D01*
X1767128Y5059070D01*
X1762963Y5050180D01*
X1760423Y5040680D01*
X1759712Y5032654D01*
X1758797Y5029250D01*
X1756816Y5026355D01*
X1556512Y4826050D01*
X1551381Y4819802D01*
X1547825Y4813147D01*
X1545640Y4805934D01*
X1544828Y4797907D01*
X1544828Y4347311D01*
X1544370Y4344263D01*
X1542237Y4340402D01*
X1538071Y4331512D01*
X1535531Y4322013D01*
X1534668Y4312208D01*
X1535531Y4302455D01*
X1538071Y4292955D01*
X1542237Y4284065D01*
X1547876Y4275988D01*
X1554835Y4269028D01*
X1562862Y4263440D01*
X1571752Y4259275D01*
X1581251Y4256735D01*
X1591056Y4255871D01*
X1600860Y4256735D01*
X1610360Y4259275D01*
X1619250Y4263440D01*
X1627276Y4269028D01*
X1634236Y4275988D01*
X1636420Y4279087D01*
X1639620Y4282084D01*
X1643837Y4283405D01*
X1648206Y4282795D01*
X1651914Y4280458D01*
X1758035Y4174337D01*
X1764284Y4169206D01*
X1770938Y4165650D01*
X1778152Y4163466D01*
X1786178Y4162653D01*
X1874926Y4162653D01*
X1878787Y4161891D01*
X1882089Y4159656D01*
X1883714Y4158081D01*
X1891741Y4152442D01*
X1900631Y4148277D01*
X1910130Y4145737D01*
X1919935Y4144873D01*
X1929739Y4145737D01*
X1939239Y4148277D01*
X1948129Y4152442D01*
X1956155Y4158081D01*
X1963115Y4165041D01*
X1968754Y4173067D01*
X1972919Y4181957D01*
X1975459Y4191457D01*
X1976323Y4201261D01*
X1975459Y4211066D01*
X1972919Y4220565D01*
X1968754Y4229455D01*
X1963115Y4237482D01*
X1956155Y4244441D01*
X1948129Y4250080D01*
X1939239Y4254246D01*
X1929739Y4256786D01*
X1919935Y4257649D01*
X1910130Y4256786D01*
X1900631Y4254246D01*
X1891741Y4250080D01*
X1883714Y4244441D01*
X1882089Y4242866D01*
X1878787Y4240631D01*
X1874926Y4239869D01*
X1805889Y4239869D01*
X1802028Y4240631D01*
X1798726Y4242866D01*
X1709521Y4332020D01*
X1707134Y4335729D01*
X1706575Y4340098D01*
X1707896Y4344314D01*
X1710893Y4347565D01*
X1719072Y4353255D01*
X1726031Y4360214D01*
X1731619Y4368292D01*
X1735785Y4377182D01*
X1738325Y4386681D01*
X1739188Y4396435D01*
X1738325Y4406239D01*
X1735785Y4415739D01*
X1731619Y4424629D01*
X1726031Y4432706D01*
X1724406Y4434281D01*
X1722221Y4437583D01*
X1721459Y4441494D01*
X1721459Y4710480D01*
X1722221Y4714392D01*
X1724406Y4717694D01*
X1895195Y4888484D01*
X1898904Y4890820D01*
X1903272Y4891430D01*
X1907489Y4890109D01*
X1910689Y4887112D01*
X1912772Y4884166D01*
X1919732Y4877206D01*
X1927758Y4871618D01*
X1936648Y4867452D01*
X1946148Y4864912D01*
X1954225Y4864201D01*
X1957628Y4863287D01*
X1960524Y4861255D01*
X2787954Y4033774D01*
X2790190Y4030472D01*
X2790952Y4026611D01*
X2790952Y3871518D01*
X2791663Y3865219D01*
X2793593Y3859733D01*
X2796641Y3854856D01*
X2800756Y3850741D01*
X2805633Y3847693D01*
X2811119Y3845763D01*
G37*
G36*
X1362811Y4091686D02*
G01*
X1442110Y4091686D01*
X1454708Y4092600D01*
X1466646Y4095191D01*
X1478127Y4099458D01*
X1488897Y4105351D01*
X1498701Y4112717D01*
X1507388Y4121353D01*
X1514703Y4131157D01*
X1520596Y4141927D01*
X1524863Y4153408D01*
X1527454Y4165396D01*
X1528368Y4177588D01*
X1527454Y4189831D01*
X1524863Y4201820D01*
X1520596Y4213301D01*
X1514703Y4224020D01*
X1507388Y4233824D01*
X1498701Y4242511D01*
X1488897Y4249877D01*
X1478127Y4255719D01*
X1466646Y4259986D01*
X1454708Y4262628D01*
X1442110Y4263491D01*
X1409395Y4263491D01*
X1405534Y4264253D01*
X1402283Y4266387D01*
X1400098Y4269587D01*
X1399235Y4273397D01*
X1399844Y4277258D01*
X1408226Y4289958D01*
X1412392Y4299508D01*
X1414983Y4309668D01*
X1415846Y4320082D01*
X1414983Y4330547D01*
X1412392Y4340707D01*
X1408226Y4350258D01*
X1402486Y4359046D01*
X1395374Y4366717D01*
X1387144Y4373168D01*
X1377950Y4378147D01*
X1368044Y4381550D01*
X1357731Y4383278D01*
X1347216Y4383278D01*
X1336903Y4381550D01*
X1326997Y4378147D01*
X1317802Y4373168D01*
X1309573Y4366717D01*
X1302461Y4359046D01*
X1296720Y4350258D01*
X1292555Y4340707D01*
X1289964Y4330547D01*
X1289100Y4320082D01*
X1289964Y4309668D01*
X1292555Y4299508D01*
X1296720Y4289958D01*
X1302461Y4281170D01*
X1309573Y4273499D01*
X1317853Y4267047D01*
X1320444Y4263999D01*
X1321714Y4260189D01*
X1321358Y4256227D01*
X1319530Y4252671D01*
X1306220Y4242511D01*
X1297584Y4233824D01*
X1290218Y4224020D01*
X1284325Y4213301D01*
X1280058Y4201820D01*
X1277467Y4189831D01*
X1276604Y4177588D01*
X1277467Y4165396D01*
X1280058Y4153408D01*
X1284325Y4141927D01*
X1290218Y4131157D01*
X1297584Y4121353D01*
X1306220Y4112717D01*
X1316024Y4105351D01*
X1326794Y4099458D01*
X1338275Y4095191D01*
X1350264Y4092600D01*
G37*
G36*
X954836Y4091686D02*
G01*
X1014120Y4091686D01*
X1026718Y4092600D01*
X1038656Y4095191D01*
X1050137Y4099458D01*
X1060907Y4105351D01*
X1070711Y4112717D01*
X1079398Y4121353D01*
X1086713Y4131157D01*
X1092606Y4141927D01*
X1096873Y4153408D01*
X1099464Y4165396D01*
X1100378Y4177588D01*
X1099464Y4189831D01*
X1096873Y4201820D01*
X1092606Y4213301D01*
X1086713Y4224020D01*
X1079398Y4233824D01*
X1070711Y4242511D01*
X1060907Y4249877D01*
X1050137Y4255719D01*
X1038656Y4259986D01*
X1031087Y4261662D01*
X1027937Y4262932D01*
X1025347Y4265218D01*
X1023670Y4268216D01*
X1023112Y4271568D01*
X1023112Y4948631D01*
X1023670Y4951984D01*
X1025347Y4954981D01*
X1027937Y4957267D01*
X1031087Y4958537D01*
X1038656Y4960213D01*
X1050137Y4964480D01*
X1060907Y4970322D01*
X1070711Y4977688D01*
X1079398Y4986375D01*
X1086713Y4996180D01*
X1092606Y5006898D01*
X1096873Y5018379D01*
X1099464Y5030368D01*
X1100378Y5042611D01*
X1099464Y5054803D01*
X1096873Y5066792D01*
X1092606Y5078272D01*
X1086713Y5089042D01*
X1079398Y5098846D01*
X1070711Y5107482D01*
X1060907Y5114848D01*
X1050137Y5120741D01*
X1038656Y5125008D01*
X1026718Y5127599D01*
X1014120Y5128514D01*
X954836Y5128514D01*
X942238Y5127599D01*
X930300Y5125008D01*
X918819Y5120741D01*
X908050Y5114848D01*
X898245Y5107482D01*
X889558Y5098846D01*
X882243Y5089042D01*
X876350Y5078272D01*
X872083Y5066792D01*
X869492Y5054803D01*
X868578Y5042611D01*
X869492Y5030368D01*
X872083Y5018379D01*
X876350Y5006898D01*
X882243Y4996180D01*
X889558Y4986375D01*
X898245Y4977688D01*
X908050Y4970322D01*
X918819Y4964480D01*
X930300Y4960213D01*
X937920Y4958537D01*
X941069Y4957267D01*
X943660Y4954981D01*
X945337Y4951984D01*
X945896Y4948631D01*
X945896Y4271568D01*
X945337Y4268216D01*
X943660Y4265218D01*
X941069Y4262932D01*
X937920Y4261662D01*
X930300Y4259986D01*
X918819Y4255719D01*
X908050Y4249877D01*
X898245Y4242511D01*
X889558Y4233824D01*
X882243Y4224020D01*
X876350Y4213301D01*
X872083Y4201820D01*
X869492Y4189831D01*
X868578Y4177588D01*
X869492Y4165396D01*
X872083Y4153408D01*
X876350Y4141927D01*
X882243Y4131157D01*
X889558Y4121353D01*
X898245Y4112717D01*
X908050Y4105351D01*
X918819Y4099458D01*
X930300Y4095191D01*
X942238Y4092600D01*
G37*
G36*
X1347216Y4836922D02*
G01*
X1357731Y4836922D01*
X1368044Y4838649D01*
X1377950Y4842052D01*
X1387144Y4847031D01*
X1395374Y4853482D01*
X1402486Y4861153D01*
X1408226Y4869942D01*
X1412392Y4879492D01*
X1414983Y4889652D01*
X1415846Y4900066D01*
X1414983Y4910531D01*
X1412392Y4920691D01*
X1408226Y4930241D01*
X1399844Y4942941D01*
X1399235Y4946802D01*
X1400098Y4950612D01*
X1402283Y4953812D01*
X1405534Y4955946D01*
X1409395Y4956708D01*
X1442110Y4956708D01*
X1454708Y4957572D01*
X1466646Y4960213D01*
X1478127Y4964480D01*
X1488897Y4970322D01*
X1498701Y4977688D01*
X1507388Y4986375D01*
X1514703Y4996180D01*
X1520596Y5006898D01*
X1524863Y5018379D01*
X1527454Y5030368D01*
X1528368Y5042611D01*
X1527454Y5054803D01*
X1524863Y5066792D01*
X1520596Y5078272D01*
X1514703Y5089042D01*
X1507388Y5098846D01*
X1498701Y5107482D01*
X1488897Y5114848D01*
X1478127Y5120741D01*
X1466646Y5125008D01*
X1454708Y5127599D01*
X1442110Y5128514D01*
X1362811Y5128514D01*
X1350264Y5127599D01*
X1338275Y5125008D01*
X1326794Y5120741D01*
X1316024Y5114848D01*
X1306220Y5107482D01*
X1297584Y5098846D01*
X1290218Y5089042D01*
X1284325Y5078272D01*
X1280058Y5066792D01*
X1277467Y5054803D01*
X1276604Y5042611D01*
X1277467Y5030368D01*
X1280058Y5018379D01*
X1284325Y5006898D01*
X1290218Y4996180D01*
X1297584Y4986375D01*
X1306220Y4977688D01*
X1316482Y4970119D01*
X1319530Y4967528D01*
X1321358Y4963972D01*
X1321714Y4960010D01*
X1320444Y4956200D01*
X1317853Y4953152D01*
X1309573Y4946700D01*
X1302461Y4939030D01*
X1296720Y4930241D01*
X1292555Y4920691D01*
X1289964Y4910531D01*
X1289100Y4900066D01*
X1289964Y4889652D01*
X1292555Y4879492D01*
X1296720Y4869942D01*
X1302461Y4861153D01*
X1309573Y4853482D01*
X1317802Y4847031D01*
X1326997Y4842052D01*
X1336903Y4838649D01*
G37*
G36*
X2941320Y5125821D02*
G01*
X2947924Y5129072D01*
X2959303Y5136692D01*
X2969564Y5145735D01*
X2978607Y5155996D01*
X2986227Y5167376D01*
X2989478Y5173980D01*
X2941320Y5173980D01*
G37*
G36*
X2849880Y5125821D02*
G01*
X2849880Y5173980D01*
X2801721Y5173980D01*
X2804972Y5167376D01*
X2812592Y5155996D01*
X2821635Y5145735D01*
X2831896Y5136692D01*
X2843276Y5129072D01*
G37*
G36*
X2801721Y5265420D02*
G01*
X2849880Y5265420D01*
X2849880Y5313578D01*
X2843276Y5310327D01*
X2831896Y5302707D01*
X2821635Y5293664D01*
X2812592Y5283403D01*
X2804972Y5272024D01*
G37*
G36*
X2941320Y5265420D02*
G01*
X2989478Y5265420D01*
X2986227Y5272024D01*
X2978607Y5283403D01*
X2969564Y5293664D01*
X2959303Y5302707D01*
X2947924Y5310327D01*
X2941320Y5313578D01*
G37*

%LPD*%
D10*
X984504Y5042611D02*
G01*
X984504Y4177588D01*
X2895600Y4965700D02*
G01*
X3002432Y4858867D01*
X3002432Y4653178D01*
X2952724Y4603470D01*
X2870022Y4603470D01*
X2749727Y4483176D01*
X2749727Y4483176D02*
G01*
X2749727Y4272457D01*
X1682826Y4396460D02*
G01*
X1682826Y4730699D01*
X1963267Y5011140D01*
X2221763Y5011140D01*
X2749727Y4483176D01*
X2022220Y5069712D02*
G01*
X1958975Y5069712D01*
X1624228Y4734966D01*
X1624228Y4362729D01*
X1785696Y4201261D01*
X1919935Y4201261D01*
X1591055Y4312234D02*
G01*
X1583436Y4319854D01*
X1583436Y4798390D01*
X1815947Y5030901D01*
X2895600Y3949700D02*
G01*
X2895600Y4056354D01*
X2895600Y4056354D02*
G01*
X2820009Y4056354D01*
X1955952Y4920411D01*
X2036165Y4948961D02*
G01*
X2036165Y4899583D01*
X2732049Y4203700D01*
X2895600Y4203700D01*
D11*
G01*
X984504Y4177588D03*
D12*
G01*
X1402486Y4177588D03*
G01*
X1402486Y5042611D03*
D11*
G01*
X984504Y5042611D03*
D13*
G01*
X2895600Y5219700D03*
G01*
X2895600Y4965700D03*
G01*
X2895600Y4711700D03*
G01*
X2895600Y4457700D03*
G01*
X2895600Y4203700D03*
D14*
G01*
X2895600Y3949700D03*
D15*
G01*
X2036165Y4948961D03*
G01*
X1955952Y4920411D03*
G01*
X1591055Y4312234D03*
G01*
X1815947Y5030901D03*
G01*
X1919935Y4201261D03*
G01*
X2022220Y5069712D03*
G01*
X1682826Y4396460D03*
G01*
X2749727Y4272457D03*
M02*
