G04 Layer: TopPasteMaskLayer*
G04 EasyEDA v6.5.54, 2026-04-13 12:43:32*
G04 ab396821c5d1410da7efbc255439c2a2,81a6330f3d4149d2af66a0b9843494eb,10*
G04 Gerber Generator version 0.2*
G04 Scale: 100 percent, Rotated: No, Reflected: No *
G04 Dimensions in millimeters *
G04 leading zeros omitted , absolute positions ,4 integer and 5 decimal *
%FSLAX45Y45*%
%MOMM*%

%ADD10R,1.2500X0.7000*%
%ADD11R,1.5000X1.3589*%
%ADD12R,0.0114X1.3589*%

%LPD*%
G36*
X1880616Y4710734D02*
G01*
X1880616Y4458716D01*
X2132584Y4458716D01*
X2132584Y4710734D01*
G37*
G36*
X1730603Y4748834D02*
G01*
X1727250Y4748428D01*
X1724101Y4747209D01*
X1721307Y4745278D01*
X1719072Y4742789D01*
X1717497Y4739792D01*
X1716684Y4736490D01*
X1716684Y4733137D01*
X1717497Y4729835D01*
X1719072Y4726838D01*
X1721307Y4724349D01*
X1724101Y4722418D01*
X1727250Y4721199D01*
X1730603Y4720793D01*
X1799285Y4720894D01*
X1802587Y4721707D01*
X1805533Y4723282D01*
X1808073Y4725517D01*
X1810004Y4728311D01*
X1810715Y4729835D01*
X1811477Y4733137D01*
X1811477Y4736490D01*
X1810715Y4739792D01*
X1809140Y4742789D01*
X1806905Y4745278D01*
X1804111Y4747209D01*
X1800961Y4748428D01*
X1797608Y4748834D01*
G37*
G36*
X1730603Y4698796D02*
G01*
X1727250Y4698390D01*
X1724101Y4697171D01*
X1721307Y4695240D01*
X1719072Y4692751D01*
X1717497Y4689754D01*
X1716684Y4686452D01*
X1716684Y4683099D01*
X1717497Y4679797D01*
X1719072Y4676800D01*
X1721307Y4674311D01*
X1724101Y4672380D01*
X1727250Y4671161D01*
X1730603Y4670755D01*
X1799285Y4670856D01*
X1802587Y4671669D01*
X1805533Y4673244D01*
X1808073Y4675479D01*
X1810004Y4678273D01*
X1810715Y4679797D01*
X1811477Y4683099D01*
X1811477Y4686452D01*
X1810715Y4689754D01*
X1809140Y4692751D01*
X1806905Y4695240D01*
X1804111Y4697171D01*
X1800961Y4698390D01*
X1797608Y4698796D01*
G37*
G36*
X1730603Y4648758D02*
G01*
X1727200Y4648200D01*
X1724050Y4646828D01*
X1722628Y4645914D01*
X1720189Y4643475D01*
X1718360Y4640580D01*
X1717344Y4637328D01*
X1717141Y4633874D01*
X1717751Y4630521D01*
X1719173Y4627372D01*
X1721307Y4624730D01*
X1724050Y4622647D01*
X1727200Y4621276D01*
X1730603Y4620768D01*
X1797608Y4620768D01*
X1800961Y4621276D01*
X1804162Y4622647D01*
X1806854Y4624730D01*
X1809038Y4627372D01*
X1810461Y4630521D01*
X1811070Y4633874D01*
X1810867Y4637328D01*
X1809851Y4640580D01*
X1808022Y4643475D01*
X1805584Y4645914D01*
X1802587Y4647590D01*
X1800961Y4648200D01*
X1797608Y4648758D01*
G37*
G36*
X1730603Y4598670D02*
G01*
X1727200Y4598162D01*
X1724050Y4596790D01*
X1721307Y4594707D01*
X1719173Y4592066D01*
X1717751Y4588916D01*
X1717141Y4585563D01*
X1717344Y4582160D01*
X1718360Y4578858D01*
X1720189Y4575962D01*
X1722628Y4573574D01*
X1725574Y4571847D01*
X1727200Y4571238D01*
X1730603Y4570730D01*
X1797608Y4570730D01*
X1800961Y4571238D01*
X1804162Y4572609D01*
X1806854Y4574692D01*
X1809038Y4577334D01*
X1810461Y4580483D01*
X1811070Y4583836D01*
X1810867Y4587290D01*
X1809851Y4590542D01*
X1808022Y4593437D01*
X1805584Y4595825D01*
X1802587Y4597552D01*
X1800961Y4598162D01*
X1797608Y4598670D01*
G37*
G36*
X1730603Y4548682D02*
G01*
X1727149Y4548174D01*
X1723948Y4546904D01*
X1721154Y4544822D01*
X1718919Y4542129D01*
X1717446Y4538980D01*
X1716836Y4535525D01*
X1717039Y4532071D01*
X1717446Y4530394D01*
X1718919Y4527245D01*
X1721154Y4524552D01*
X1723948Y4522470D01*
X1727149Y4521149D01*
X1730603Y4520692D01*
X1799336Y4520793D01*
X1802688Y4521708D01*
X1805736Y4523435D01*
X1808225Y4525822D01*
X1810105Y4528769D01*
X1811172Y4532071D01*
X1811375Y4535525D01*
X1810715Y4538980D01*
X1810105Y4540605D01*
X1808225Y4543552D01*
X1805736Y4545939D01*
X1804263Y4546904D01*
X1801063Y4548174D01*
X1797608Y4548682D01*
G37*
G36*
X1730603Y4498644D02*
G01*
X1727149Y4498136D01*
X1723948Y4496816D01*
X1721154Y4494784D01*
X1718919Y4492091D01*
X1717446Y4488942D01*
X1716836Y4485487D01*
X1717039Y4482033D01*
X1717446Y4480356D01*
X1718919Y4477207D01*
X1721154Y4474514D01*
X1723948Y4472432D01*
X1727149Y4471111D01*
X1730603Y4470654D01*
X1799336Y4470755D01*
X1802688Y4471670D01*
X1805736Y4473397D01*
X1808225Y4475784D01*
X1810105Y4478731D01*
X1811172Y4482033D01*
X1811375Y4485487D01*
X1810715Y4488942D01*
X1810105Y4490567D01*
X1808225Y4493514D01*
X1805736Y4495901D01*
X1802688Y4497578D01*
X1799336Y4498492D01*
X1797608Y4498644D01*
G37*
G36*
X1730603Y4448606D02*
G01*
X1727149Y4448098D01*
X1723948Y4446778D01*
X1721154Y4444746D01*
X1718919Y4442053D01*
X1717446Y4438904D01*
X1716836Y4435449D01*
X1717039Y4431995D01*
X1717446Y4430318D01*
X1718919Y4427169D01*
X1721154Y4424476D01*
X1722475Y4423308D01*
X1725523Y4421632D01*
X1728876Y4420717D01*
X1797608Y4420616D01*
X1801063Y4421073D01*
X1804263Y4422394D01*
X1805736Y4423308D01*
X1808225Y4425746D01*
X1810105Y4428693D01*
X1811172Y4431995D01*
X1811375Y4435449D01*
X1810715Y4438904D01*
X1810105Y4440529D01*
X1808225Y4443476D01*
X1805736Y4445863D01*
X1802688Y4447540D01*
X1799336Y4448454D01*
X1797608Y4448606D01*
G37*
G36*
X1856486Y4389678D02*
G01*
X1853133Y4389272D01*
X1849983Y4388053D01*
X1847189Y4386173D01*
X1844954Y4383633D01*
X1843379Y4380636D01*
X1842566Y4377385D01*
X1842465Y4308703D01*
X1842871Y4305350D01*
X1844090Y4302201D01*
X1846021Y4299407D01*
X1848510Y4297172D01*
X1851507Y4295597D01*
X1854809Y4294784D01*
X1858162Y4294784D01*
X1861464Y4295597D01*
X1864410Y4297172D01*
X1865782Y4298188D01*
X1868017Y4300728D01*
X1869592Y4303725D01*
X1870354Y4306976D01*
X1870456Y4375658D01*
X1870049Y4379010D01*
X1869592Y4380636D01*
X1868017Y4383633D01*
X1865782Y4386173D01*
X1862988Y4388053D01*
X1859838Y4389272D01*
G37*
G36*
X1906524Y4389678D02*
G01*
X1903171Y4389272D01*
X1900021Y4388053D01*
X1897227Y4386173D01*
X1894992Y4383633D01*
X1893417Y4380636D01*
X1892604Y4377385D01*
X1892503Y4308703D01*
X1892909Y4305350D01*
X1894128Y4302201D01*
X1896059Y4299407D01*
X1898548Y4297172D01*
X1901545Y4295597D01*
X1904847Y4294784D01*
X1908200Y4294784D01*
X1911502Y4295597D01*
X1914448Y4297172D01*
X1915820Y4298188D01*
X1918055Y4300728D01*
X1919630Y4303725D01*
X1920392Y4306976D01*
X1920493Y4375658D01*
X1920087Y4379010D01*
X1919630Y4380636D01*
X1918055Y4383633D01*
X1915820Y4386173D01*
X1913026Y4388053D01*
X1909876Y4389272D01*
G37*
G36*
X1956562Y4389678D02*
G01*
X1953209Y4389272D01*
X1950059Y4388053D01*
X1947265Y4386173D01*
X1945030Y4383633D01*
X1943455Y4380636D01*
X1942642Y4377385D01*
X1942541Y4308703D01*
X1942947Y4305350D01*
X1944166Y4302201D01*
X1946097Y4299407D01*
X1948586Y4297172D01*
X1951583Y4295597D01*
X1954885Y4294784D01*
X1958238Y4294784D01*
X1961540Y4295597D01*
X1964486Y4297172D01*
X1965858Y4298188D01*
X1968093Y4300728D01*
X1969668Y4303725D01*
X1970430Y4306976D01*
X1970532Y4375658D01*
X1970125Y4379010D01*
X1969668Y4380636D01*
X1968093Y4383633D01*
X1965858Y4386173D01*
X1963064Y4388053D01*
X1959914Y4389272D01*
G37*
G36*
X2006600Y4389678D02*
G01*
X2003247Y4389272D01*
X2000097Y4388053D01*
X1997303Y4386173D01*
X1995068Y4383633D01*
X1993493Y4380636D01*
X1992680Y4377385D01*
X1992579Y4308703D01*
X1992985Y4305350D01*
X1994204Y4302201D01*
X1996135Y4299407D01*
X1998624Y4297172D01*
X2001621Y4295597D01*
X2004923Y4294784D01*
X2008276Y4294784D01*
X2011578Y4295597D01*
X2014524Y4297172D01*
X2015896Y4298188D01*
X2018131Y4300728D01*
X2019706Y4303725D01*
X2020468Y4306976D01*
X2020570Y4375658D01*
X2020163Y4379010D01*
X2019706Y4380636D01*
X2018131Y4383633D01*
X2015896Y4386173D01*
X2013102Y4388053D01*
X2009952Y4389272D01*
G37*
G36*
X2056638Y4389678D02*
G01*
X2053285Y4389272D01*
X2050135Y4388053D01*
X2047341Y4386173D01*
X2045106Y4383633D01*
X2043531Y4380636D01*
X2042718Y4377385D01*
X2042617Y4308703D01*
X2043023Y4305350D01*
X2044242Y4302201D01*
X2046173Y4299407D01*
X2048662Y4297172D01*
X2051659Y4295597D01*
X2054961Y4294784D01*
X2058314Y4294784D01*
X2061616Y4295597D01*
X2064562Y4297172D01*
X2065934Y4298188D01*
X2068169Y4300728D01*
X2069744Y4303725D01*
X2070506Y4306976D01*
X2070607Y4375658D01*
X2070201Y4379010D01*
X2069744Y4380636D01*
X2068169Y4383633D01*
X2065934Y4386173D01*
X2063140Y4388053D01*
X2059990Y4389272D01*
G37*
G36*
X2106676Y4389678D02*
G01*
X2103323Y4389272D01*
X2100173Y4388053D01*
X2097379Y4386173D01*
X2095144Y4383633D01*
X2093569Y4380636D01*
X2092756Y4377385D01*
X2092655Y4308703D01*
X2093061Y4305350D01*
X2094280Y4302201D01*
X2096211Y4299407D01*
X2098700Y4297172D01*
X2101697Y4295597D01*
X2104999Y4294784D01*
X2108352Y4294784D01*
X2111654Y4295597D01*
X2114600Y4297172D01*
X2115972Y4298188D01*
X2118207Y4300728D01*
X2119782Y4303725D01*
X2120544Y4306976D01*
X2120646Y4375658D01*
X2120239Y4379010D01*
X2119782Y4380636D01*
X2118207Y4383633D01*
X2115972Y4386173D01*
X2113178Y4388053D01*
X2110028Y4389272D01*
G37*
G36*
X2156714Y4389678D02*
G01*
X2153361Y4389272D01*
X2150211Y4388053D01*
X2147417Y4386173D01*
X2145182Y4383633D01*
X2143607Y4380636D01*
X2142794Y4377385D01*
X2142693Y4308703D01*
X2143099Y4305350D01*
X2144318Y4302201D01*
X2146249Y4299407D01*
X2148738Y4297172D01*
X2151735Y4295597D01*
X2155037Y4294784D01*
X2158390Y4294784D01*
X2161692Y4295597D01*
X2164638Y4297172D01*
X2166010Y4298188D01*
X2168245Y4300728D01*
X2169820Y4303725D01*
X2170582Y4306976D01*
X2170684Y4375658D01*
X2170277Y4379010D01*
X2169820Y4380636D01*
X2168245Y4383633D01*
X2166010Y4386173D01*
X2163216Y4388053D01*
X2160066Y4389272D01*
G37*
G36*
X2215591Y4448606D02*
G01*
X2212187Y4448098D01*
X2208936Y4446778D01*
X2206142Y4444746D01*
X2203958Y4442053D01*
X2203094Y4440529D01*
X2202027Y4437176D01*
X2201824Y4433722D01*
X2202027Y4431995D01*
X2203094Y4428693D01*
X2204974Y4425746D01*
X2207463Y4423308D01*
X2210511Y4421632D01*
X2213864Y4420717D01*
X2284374Y4420717D01*
X2287727Y4421632D01*
X2290724Y4423308D01*
X2293264Y4425746D01*
X2295093Y4428693D01*
X2295753Y4430318D01*
X2296414Y4433722D01*
X2296160Y4437176D01*
X2295753Y4438904D01*
X2294280Y4442053D01*
X2292096Y4444746D01*
X2289302Y4446778D01*
X2286050Y4448098D01*
X2282596Y4448606D01*
G37*
G36*
X2215591Y4498644D02*
G01*
X2212187Y4498136D01*
X2208936Y4496816D01*
X2206142Y4494784D01*
X2203958Y4492091D01*
X2203094Y4490567D01*
X2202027Y4487214D01*
X2201824Y4483760D01*
X2202027Y4482033D01*
X2203094Y4478731D01*
X2204974Y4475784D01*
X2207463Y4473397D01*
X2210511Y4471670D01*
X2213864Y4470755D01*
X2284374Y4470755D01*
X2287727Y4471670D01*
X2290724Y4473397D01*
X2293264Y4475784D01*
X2295093Y4478731D01*
X2295753Y4480356D01*
X2296414Y4483760D01*
X2296160Y4487214D01*
X2295753Y4488942D01*
X2294280Y4492091D01*
X2292096Y4494784D01*
X2289302Y4496816D01*
X2286050Y4498136D01*
X2282596Y4498644D01*
G37*
G36*
X2215591Y4548682D02*
G01*
X2212187Y4548174D01*
X2208936Y4546904D01*
X2206142Y4544822D01*
X2203958Y4542129D01*
X2203094Y4540605D01*
X2202027Y4537252D01*
X2201824Y4533798D01*
X2202027Y4532071D01*
X2203094Y4528769D01*
X2204974Y4525822D01*
X2207463Y4523435D01*
X2210511Y4521708D01*
X2213864Y4520793D01*
X2284374Y4520793D01*
X2287727Y4521708D01*
X2290724Y4523435D01*
X2293264Y4525822D01*
X2295093Y4528769D01*
X2295753Y4530394D01*
X2296414Y4533798D01*
X2296160Y4537252D01*
X2295753Y4538980D01*
X2294280Y4542129D01*
X2292096Y4544822D01*
X2289302Y4546904D01*
X2286050Y4548174D01*
X2282596Y4548682D01*
G37*
G36*
X2215591Y4598670D02*
G01*
X2212238Y4598162D01*
X2209088Y4596790D01*
X2206345Y4594707D01*
X2204212Y4592066D01*
X2202789Y4588916D01*
X2202332Y4587290D01*
X2202129Y4583836D01*
X2202789Y4580483D01*
X2204212Y4577334D01*
X2206345Y4574692D01*
X2209088Y4572609D01*
X2212238Y4571238D01*
X2215591Y4570730D01*
X2282596Y4570730D01*
X2286000Y4571238D01*
X2289149Y4572609D01*
X2291892Y4574692D01*
X2294026Y4577334D01*
X2295448Y4580483D01*
X2296109Y4583836D01*
X2295855Y4587290D01*
X2294839Y4590542D01*
X2293061Y4593437D01*
X2290572Y4595825D01*
X2287625Y4597552D01*
X2286000Y4598162D01*
X2282596Y4598670D01*
G37*
G36*
X2215591Y4648758D02*
G01*
X2212238Y4648200D01*
X2209088Y4646828D01*
X2207615Y4645914D01*
X2205177Y4643475D01*
X2203399Y4640580D01*
X2202332Y4637328D01*
X2202129Y4633874D01*
X2202789Y4630521D01*
X2204212Y4627372D01*
X2206345Y4624730D01*
X2209088Y4622647D01*
X2212238Y4621276D01*
X2215591Y4620768D01*
X2282596Y4620768D01*
X2286000Y4621276D01*
X2289149Y4622647D01*
X2291892Y4624730D01*
X2294026Y4627372D01*
X2295448Y4630521D01*
X2296109Y4633874D01*
X2295855Y4637328D01*
X2294839Y4640580D01*
X2293061Y4643475D01*
X2290572Y4645914D01*
X2287625Y4647590D01*
X2286000Y4648200D01*
X2282596Y4648758D01*
G37*
G36*
X2215591Y4698796D02*
G01*
X2212238Y4698390D01*
X2209088Y4697171D01*
X2206345Y4695240D01*
X2204110Y4692751D01*
X2202535Y4689754D01*
X2201722Y4686452D01*
X2201722Y4683099D01*
X2202535Y4679797D01*
X2204110Y4676800D01*
X2206345Y4674311D01*
X2209088Y4672380D01*
X2212238Y4671161D01*
X2215591Y4670755D01*
X2284323Y4670856D01*
X2287574Y4671669D01*
X2290572Y4673244D01*
X2293112Y4675479D01*
X2294991Y4678273D01*
X2296210Y4681423D01*
X2296617Y4684776D01*
X2296210Y4688128D01*
X2294991Y4691278D01*
X2293112Y4694072D01*
X2290572Y4696307D01*
X2287574Y4697882D01*
X2284323Y4698695D01*
G37*
G36*
X2215591Y4748834D02*
G01*
X2212238Y4748428D01*
X2209088Y4747209D01*
X2206345Y4745278D01*
X2204110Y4742789D01*
X2202535Y4739792D01*
X2201722Y4736490D01*
X2201722Y4733137D01*
X2202535Y4729835D01*
X2204110Y4726838D01*
X2206345Y4724349D01*
X2209088Y4722418D01*
X2212238Y4721199D01*
X2215591Y4720793D01*
X2284323Y4720894D01*
X2287574Y4721707D01*
X2290572Y4723282D01*
X2293112Y4725517D01*
X2294991Y4728311D01*
X2296210Y4731461D01*
X2296617Y4734814D01*
X2296210Y4738166D01*
X2294991Y4741316D01*
X2293112Y4744110D01*
X2290572Y4746345D01*
X2287574Y4747920D01*
X2284323Y4748733D01*
G37*
G36*
X2156714Y4874717D02*
G01*
X2153361Y4874310D01*
X2150211Y4873091D01*
X2147417Y4871161D01*
X2145182Y4868672D01*
X2143607Y4865674D01*
X2142794Y4862372D01*
X2142693Y4793691D01*
X2143099Y4790338D01*
X2144318Y4787188D01*
X2146249Y4784394D01*
X2148738Y4782159D01*
X2151735Y4780635D01*
X2155037Y4779822D01*
X2158390Y4779822D01*
X2161692Y4780635D01*
X2164638Y4782159D01*
X2167178Y4784394D01*
X2169109Y4787188D01*
X2169820Y4788712D01*
X2170582Y4792014D01*
X2170684Y4860696D01*
X2170277Y4864049D01*
X2169820Y4865674D01*
X2168245Y4868672D01*
X2166010Y4871161D01*
X2163216Y4873091D01*
X2160066Y4874310D01*
G37*
G36*
X2106676Y4874717D02*
G01*
X2103323Y4874310D01*
X2100173Y4873091D01*
X2097379Y4871161D01*
X2095144Y4868672D01*
X2093569Y4865674D01*
X2092756Y4862372D01*
X2092655Y4793691D01*
X2093061Y4790338D01*
X2094280Y4787188D01*
X2096211Y4784394D01*
X2098700Y4782159D01*
X2101697Y4780635D01*
X2104999Y4779822D01*
X2108352Y4779822D01*
X2111654Y4780635D01*
X2114600Y4782159D01*
X2117140Y4784394D01*
X2119071Y4787188D01*
X2119782Y4788712D01*
X2120544Y4792014D01*
X2120646Y4860696D01*
X2120239Y4864049D01*
X2119782Y4865674D01*
X2118207Y4868672D01*
X2115972Y4871161D01*
X2113178Y4873091D01*
X2110028Y4874310D01*
G37*
G36*
X2056638Y4874717D02*
G01*
X2053285Y4874310D01*
X2050135Y4873091D01*
X2047341Y4871161D01*
X2045106Y4868672D01*
X2043531Y4865674D01*
X2042718Y4862372D01*
X2042617Y4793691D01*
X2043023Y4790338D01*
X2044242Y4787188D01*
X2046173Y4784394D01*
X2048662Y4782159D01*
X2051659Y4780635D01*
X2054961Y4779822D01*
X2058314Y4779822D01*
X2061616Y4780635D01*
X2064562Y4782159D01*
X2067102Y4784394D01*
X2069033Y4787188D01*
X2069744Y4788712D01*
X2070506Y4792014D01*
X2070607Y4860696D01*
X2070201Y4864049D01*
X2069744Y4865674D01*
X2068169Y4868672D01*
X2065934Y4871161D01*
X2063140Y4873091D01*
X2059990Y4874310D01*
G37*
G36*
X2006600Y4874717D02*
G01*
X2003247Y4874310D01*
X2000097Y4873091D01*
X1997303Y4871161D01*
X1995068Y4868672D01*
X1993493Y4865674D01*
X1992680Y4862372D01*
X1992579Y4793691D01*
X1992985Y4790338D01*
X1994204Y4787188D01*
X1996135Y4784394D01*
X1998624Y4782159D01*
X2001621Y4780635D01*
X2004923Y4779822D01*
X2008276Y4779822D01*
X2011578Y4780635D01*
X2014524Y4782159D01*
X2017064Y4784394D01*
X2018995Y4787188D01*
X2019706Y4788712D01*
X2020468Y4792014D01*
X2020570Y4860696D01*
X2020163Y4864049D01*
X2019706Y4865674D01*
X2018131Y4868672D01*
X2015896Y4871161D01*
X2013102Y4873091D01*
X2009952Y4874310D01*
G37*
G36*
X1956562Y4874717D02*
G01*
X1953209Y4874310D01*
X1950059Y4873091D01*
X1947265Y4871161D01*
X1945030Y4868672D01*
X1943455Y4865674D01*
X1942642Y4862372D01*
X1942541Y4793691D01*
X1942947Y4790338D01*
X1944166Y4787188D01*
X1946097Y4784394D01*
X1948586Y4782159D01*
X1951583Y4780635D01*
X1954885Y4779822D01*
X1958238Y4779822D01*
X1961540Y4780635D01*
X1964486Y4782159D01*
X1967026Y4784394D01*
X1968957Y4787188D01*
X1969668Y4788712D01*
X1970430Y4792014D01*
X1970532Y4860696D01*
X1970125Y4864049D01*
X1969668Y4865674D01*
X1968093Y4868672D01*
X1965858Y4871161D01*
X1963064Y4873091D01*
X1959914Y4874310D01*
G37*
G36*
X1906524Y4874717D02*
G01*
X1903171Y4874310D01*
X1900021Y4873091D01*
X1897227Y4871161D01*
X1894992Y4868672D01*
X1893417Y4865674D01*
X1892604Y4862372D01*
X1892503Y4793691D01*
X1892909Y4790338D01*
X1894128Y4787188D01*
X1896059Y4784394D01*
X1898548Y4782159D01*
X1901545Y4780635D01*
X1904847Y4779822D01*
X1908200Y4779822D01*
X1911502Y4780635D01*
X1914448Y4782159D01*
X1916988Y4784394D01*
X1918919Y4787188D01*
X1919630Y4788712D01*
X1920392Y4792014D01*
X1920493Y4860696D01*
X1920087Y4864049D01*
X1919630Y4865674D01*
X1918055Y4868672D01*
X1915820Y4871161D01*
X1913026Y4873091D01*
X1909876Y4874310D01*
G37*
G36*
X1856486Y4874717D02*
G01*
X1853133Y4874310D01*
X1849983Y4873091D01*
X1847189Y4871161D01*
X1844954Y4868672D01*
X1843379Y4865674D01*
X1842566Y4862372D01*
X1842465Y4793691D01*
X1842871Y4790338D01*
X1844090Y4787188D01*
X1846021Y4784394D01*
X1848510Y4782159D01*
X1851507Y4780635D01*
X1854809Y4779822D01*
X1858162Y4779822D01*
X1861464Y4780635D01*
X1864410Y4782159D01*
X1866950Y4784394D01*
X1868881Y4787188D01*
X1869592Y4788712D01*
X1870354Y4792014D01*
X1870456Y4860696D01*
X1870049Y4864049D01*
X1869592Y4865674D01*
X1868017Y4868672D01*
X1865782Y4871161D01*
X1862988Y4873091D01*
X1859838Y4874310D01*
G37*
G36*
X1414322Y4320082D02*
G01*
X1414322Y4260088D01*
X1544320Y4260088D01*
X1544320Y4320082D01*
G37*
G36*
X1414322Y4700117D02*
G01*
X1414322Y4670094D01*
X1544320Y4670094D01*
X1544320Y4700117D01*
G37*
G36*
X1414322Y4960112D02*
G01*
X1414322Y4900117D01*
X1544320Y4900117D01*
X1544320Y4960112D01*
G37*
G36*
X1414322Y4600092D02*
G01*
X1414322Y4570120D01*
X1544320Y4570120D01*
X1544320Y4600092D01*
G37*
G36*
X1414322Y4450080D02*
G01*
X1414322Y4420108D01*
X1544320Y4420108D01*
X1544320Y4450080D01*
G37*
G36*
X1414322Y4750104D02*
G01*
X1414322Y4720082D01*
X1544320Y4720082D01*
X1544320Y4750104D01*
G37*
G36*
X1414322Y4500118D02*
G01*
X1414322Y4470146D01*
X1544320Y4470146D01*
X1544320Y4500118D01*
G37*
G36*
X1414322Y4550105D02*
G01*
X1414322Y4520082D01*
X1544320Y4520082D01*
X1544320Y4550105D01*
G37*
G36*
X1414322Y4800092D02*
G01*
X1414322Y4770120D01*
X1544320Y4770120D01*
X1544320Y4800092D01*
G37*
G36*
X1414322Y4650079D02*
G01*
X1414322Y4620107D01*
X1544320Y4620107D01*
X1544320Y4650079D01*
G37*
G36*
X1414322Y4880102D02*
G01*
X1414322Y4820107D01*
X1544320Y4820107D01*
X1544320Y4880102D01*
G37*
G36*
X1362456Y5102606D02*
G01*
X1356512Y5102301D01*
X1350568Y5101437D01*
X1344777Y5099964D01*
X1339189Y5097881D01*
X1333804Y5095290D01*
X1328674Y5092192D01*
X1323898Y5088585D01*
X1319530Y5084521D01*
X1315567Y5080000D01*
X1312062Y5075174D01*
X1309065Y5069992D01*
X1306626Y5064556D01*
X1304747Y5058867D01*
X1303375Y5053025D01*
X1302664Y5047081D01*
X1302512Y5041138D01*
X1302969Y5035143D01*
X1303985Y5029250D01*
X1305610Y5023510D01*
X1307795Y5017922D01*
X1310538Y5012588D01*
X1313738Y5007610D01*
X1317498Y5002936D01*
X1321663Y4998618D01*
X1326235Y4994757D01*
X1331214Y4991404D01*
X1336446Y4988560D01*
X1341983Y4986223D01*
X1347673Y4984445D01*
X1353515Y4983276D01*
X1359509Y4982667D01*
X1442466Y4982616D01*
X1448460Y4982921D01*
X1454353Y4983784D01*
X1460144Y4985258D01*
X1465783Y4987340D01*
X1471168Y4989931D01*
X1476298Y4993030D01*
X1481023Y4996637D01*
X1485442Y5000701D01*
X1489405Y5005222D01*
X1492859Y5010048D01*
X1495856Y5015230D01*
X1498346Y5020665D01*
X1500225Y5026355D01*
X1501546Y5032197D01*
X1502308Y5038140D01*
X1502460Y5044084D01*
X1502003Y5050078D01*
X1500987Y5055971D01*
X1499362Y5061712D01*
X1497177Y5067300D01*
X1494434Y5072634D01*
X1491183Y5077612D01*
X1487474Y5082286D01*
X1483309Y5086604D01*
X1478686Y5090464D01*
X1473758Y5093817D01*
X1468526Y5096662D01*
X1462989Y5098999D01*
X1457299Y5100777D01*
X1451406Y5101945D01*
X1445463Y5102555D01*
G37*
G36*
X1362456Y4237583D02*
G01*
X1356512Y4237278D01*
X1350568Y4236415D01*
X1344777Y4234942D01*
X1339189Y4232859D01*
X1333804Y4230268D01*
X1328674Y4227169D01*
X1323898Y4223562D01*
X1319530Y4219498D01*
X1315567Y4214977D01*
X1312062Y4210151D01*
X1309065Y4204970D01*
X1306626Y4199534D01*
X1304747Y4193844D01*
X1303375Y4188002D01*
X1302664Y4182059D01*
X1302512Y4176115D01*
X1302969Y4170121D01*
X1303985Y4164228D01*
X1305610Y4158487D01*
X1307795Y4152900D01*
X1310538Y4147565D01*
X1313738Y4142587D01*
X1317498Y4137914D01*
X1321663Y4133596D01*
X1326235Y4129735D01*
X1331214Y4126382D01*
X1336446Y4123537D01*
X1341983Y4121200D01*
X1347673Y4119422D01*
X1353515Y4118254D01*
X1359509Y4117644D01*
X1442466Y4117594D01*
X1448460Y4117898D01*
X1454353Y4118762D01*
X1460144Y4120235D01*
X1465783Y4122318D01*
X1471168Y4124909D01*
X1476298Y4128008D01*
X1481023Y4131614D01*
X1485442Y4135678D01*
X1489405Y4140200D01*
X1492859Y4145026D01*
X1495856Y4150207D01*
X1498346Y4155643D01*
X1500225Y4161332D01*
X1501546Y4167174D01*
X1502308Y4173118D01*
X1502460Y4179062D01*
X1502003Y4185056D01*
X1500987Y4190949D01*
X1499362Y4196689D01*
X1497177Y4202277D01*
X1494434Y4207611D01*
X1491183Y4212590D01*
X1487474Y4217263D01*
X1483309Y4221581D01*
X1478686Y4225442D01*
X1473758Y4228795D01*
X1468526Y4231640D01*
X1462989Y4233976D01*
X1457299Y4235754D01*
X1451406Y4236923D01*
X1445463Y4237532D01*
G37*
G36*
X954481Y5102606D02*
G01*
X948537Y5102301D01*
X942594Y5101437D01*
X936802Y5099964D01*
X931164Y5097881D01*
X925779Y5095290D01*
X920699Y5092192D01*
X915924Y5088585D01*
X911555Y5084521D01*
X907592Y5080000D01*
X904087Y5075174D01*
X901090Y5069992D01*
X898652Y5064556D01*
X896721Y5058867D01*
X895400Y5053025D01*
X894638Y5047081D01*
X894486Y5041138D01*
X894943Y5035143D01*
X896010Y5029250D01*
X897636Y5023510D01*
X899820Y5017922D01*
X902512Y5012588D01*
X905764Y5007610D01*
X909523Y5002936D01*
X913688Y4998618D01*
X918260Y4994757D01*
X923188Y4991404D01*
X928471Y4988560D01*
X933958Y4986223D01*
X939698Y4984445D01*
X945540Y4983276D01*
X951484Y4982667D01*
X1014476Y4982616D01*
X1020470Y4982921D01*
X1026363Y4983784D01*
X1032154Y4985258D01*
X1037793Y4987340D01*
X1043178Y4989931D01*
X1048308Y4993030D01*
X1053033Y4996637D01*
X1057452Y5000701D01*
X1061415Y5005222D01*
X1064869Y5010048D01*
X1067866Y5015230D01*
X1070356Y5020665D01*
X1072235Y5026355D01*
X1073556Y5032197D01*
X1074318Y5038140D01*
X1074470Y5044084D01*
X1074013Y5050078D01*
X1072997Y5055971D01*
X1071372Y5061712D01*
X1069187Y5067300D01*
X1066444Y5072634D01*
X1063193Y5077612D01*
X1059484Y5082286D01*
X1055319Y5086604D01*
X1050696Y5090464D01*
X1045768Y5093817D01*
X1040536Y5096662D01*
X1034999Y5098999D01*
X1029309Y5100777D01*
X1023416Y5101945D01*
X1017473Y5102555D01*
G37*
G36*
X954481Y4237583D02*
G01*
X948537Y4237278D01*
X942594Y4236415D01*
X936802Y4234942D01*
X931164Y4232859D01*
X925779Y4230268D01*
X920699Y4227169D01*
X915924Y4223562D01*
X911555Y4219498D01*
X907592Y4214977D01*
X904087Y4210151D01*
X901090Y4204970D01*
X898652Y4199534D01*
X896721Y4193844D01*
X895400Y4188002D01*
X894638Y4182059D01*
X894486Y4176115D01*
X894943Y4170121D01*
X896010Y4164228D01*
X897636Y4158487D01*
X899820Y4152900D01*
X902512Y4147565D01*
X905764Y4142587D01*
X909523Y4137914D01*
X913688Y4133596D01*
X918260Y4129735D01*
X923188Y4126382D01*
X928471Y4123537D01*
X933958Y4121200D01*
X939698Y4119422D01*
X945540Y4118254D01*
X951484Y4117644D01*
X1014476Y4117594D01*
X1020470Y4117898D01*
X1026363Y4118762D01*
X1032154Y4120235D01*
X1037793Y4122318D01*
X1043178Y4124909D01*
X1048308Y4128008D01*
X1053033Y4131614D01*
X1057452Y4135678D01*
X1061415Y4140200D01*
X1064869Y4145026D01*
X1067866Y4150207D01*
X1070356Y4155643D01*
X1072235Y4161332D01*
X1073556Y4167174D01*
X1074318Y4173118D01*
X1074470Y4179062D01*
X1074013Y4185056D01*
X1072997Y4190949D01*
X1071372Y4196689D01*
X1069187Y4202277D01*
X1066444Y4207611D01*
X1063193Y4212590D01*
X1059484Y4217263D01*
X1055319Y4221581D01*
X1050696Y4225442D01*
X1045768Y4228795D01*
X1040536Y4231640D01*
X1034999Y4233976D01*
X1029309Y4235754D01*
X1023416Y4236923D01*
X1017473Y4237532D01*
G37*
G36*
X1414322Y4400092D02*
G01*
X1414322Y4340098D01*
X1544320Y4340098D01*
X1544320Y4400092D01*
G37*
G36*
X1598320Y5306110D02*
G01*
X1593291Y5301081D01*
X1593291Y5221122D01*
X1598320Y5216093D01*
X1621078Y5216093D01*
X1621078Y5253126D01*
X1654098Y5253126D01*
X1654098Y5216093D01*
X1678279Y5216093D01*
X1683308Y5221122D01*
X1683308Y5301081D01*
X1678279Y5306110D01*
G37*
G36*
X1598320Y5147106D02*
G01*
X1593291Y5142077D01*
X1593291Y5062118D01*
X1598320Y5057089D01*
X1678279Y5057089D01*
X1683308Y5062118D01*
X1683308Y5142077D01*
X1678279Y5147106D01*
X1655521Y5147106D01*
X1655521Y5110073D01*
X1622501Y5110073D01*
X1622501Y5147106D01*
G37*
G36*
X1852320Y5306110D02*
G01*
X1847291Y5301081D01*
X1847291Y5221122D01*
X1852320Y5216093D01*
X1875078Y5216093D01*
X1875078Y5253126D01*
X1908098Y5253126D01*
X1908098Y5216093D01*
X1932279Y5216093D01*
X1937308Y5221122D01*
X1937308Y5301081D01*
X1932279Y5306110D01*
G37*
G36*
X1852320Y5147106D02*
G01*
X1847291Y5142077D01*
X1847291Y5062118D01*
X1852320Y5057089D01*
X1932279Y5057089D01*
X1937308Y5062118D01*
X1937308Y5142077D01*
X1932279Y5147106D01*
X1909521Y5147106D01*
X1909521Y5110073D01*
X1876501Y5110073D01*
X1876501Y5147106D01*
G37*
G36*
X2093620Y5147106D02*
G01*
X2088591Y5142077D01*
X2088591Y5062118D01*
X2093620Y5057089D01*
X2173579Y5057089D01*
X2178608Y5062118D01*
X2178608Y5142077D01*
X2173579Y5147106D01*
X2150821Y5147106D01*
X2150821Y5110073D01*
X2117801Y5110073D01*
X2117801Y5147106D01*
G37*
G36*
X2093620Y5306110D02*
G01*
X2088591Y5301081D01*
X2088591Y5221122D01*
X2093620Y5216093D01*
X2116378Y5216093D01*
X2116378Y5253126D01*
X2149398Y5253126D01*
X2149398Y5216093D01*
X2173579Y5216093D01*
X2178608Y5221122D01*
X2178608Y5301081D01*
X2173579Y5306110D01*
G37*
G36*
X2360320Y5147106D02*
G01*
X2355291Y5142077D01*
X2355291Y5062118D01*
X2360320Y5057089D01*
X2440279Y5057089D01*
X2445308Y5062118D01*
X2445308Y5142077D01*
X2440279Y5147106D01*
X2417521Y5147106D01*
X2417521Y5110073D01*
X2384501Y5110073D01*
X2384501Y5147106D01*
G37*
G36*
X2360320Y5306110D02*
G01*
X2355291Y5301081D01*
X2355291Y5221122D01*
X2360320Y5216093D01*
X2383078Y5216093D01*
X2383078Y5253126D01*
X2416098Y5253126D01*
X2416098Y5216093D01*
X2440279Y5216093D01*
X2445308Y5221122D01*
X2445308Y5301081D01*
X2440279Y5306110D01*
G37*
D10*
G01*
X2627299Y4299204D03*
G01*
X2627299Y4489195D03*
G01*
X2427300Y4394200D03*
G01*
X2639999Y4718304D03*
G01*
X2639999Y4908295D03*
G01*
X2440000Y4813300D03*
D11*
G01*
X2407183Y4000500D03*
G01*
X2647162Y4000500D03*
G01*
X1467510Y4000500D03*
G01*
X1707489Y4000500D03*
G01*
X1962810Y4000500D03*
G01*
X2202789Y4000500D03*
M02*
